HIERARCHY
ROOT Hips
{
	OFFSET	0.00	0.00	0.00
	CHANNELS 6 Xposition Yposition Zposition Zrotation Xrotation Yrotation
	JOINT LeftUpLeg
	{
		OFFSET	 0.126116	-0.014019	-0.065224
		CHANNELS 3 Zrotation Xrotation Yrotation
		JOINT LeftLeg
		{
			OFFSET	 0.000000	 0.000000	 0.569914
			CHANNELS 3 Zrotation Xrotation Yrotation
			JOINT LeftFoot
			{
				OFFSET	 0.000000	 0.000000	 0.544423
				CHANNELS 3 Zrotation Xrotation Yrotation
				JOINT LeftToeBase
				{
					OFFSET	 0.000000	 0.000000	 0.207117
					CHANNELS 3 Zrotation Xrotation Yrotation
					End Site
					{
						OFFSET	 0.000000	 0.000000	 0.207117
					}
				}
			}
		}
	}
	JOINT RightUpLeg
	{
		OFFSET	-0.124023	-0.008373	-0.065224
		CHANNELS 3 Zrotation Xrotation Yrotation
		JOINT RightLeg
		{
			OFFSET	 0.000000	 0.000000	 0.570047
			CHANNELS 3 Zrotation Xrotation Yrotation
			JOINT RightFoot
			{
				OFFSET	 0.000000	 0.000000	 0.544354
				CHANNELS 3 Zrotation Xrotation Yrotation
				JOINT RightToeBase
				{
					OFFSET	 0.000000	 0.000000	 0.207540
					CHANNELS 3 Zrotation Xrotation Yrotation
					End Site
					{
						OFFSET	 0.000000	 0.000000	 0.207540
					}
				}
			}
		}
	}
	JOINT Spine
	{
		OFFSET	 0.000184	-0.007763	 0.117403
		CHANNELS 3 Zrotation Xrotation Yrotation
		JOINT Spine1
		{
			OFFSET	 0.000000	 0.000000	 0.137269
			CHANNELS 3 Zrotation Xrotation Yrotation
			JOINT Spine2
			{
				OFFSET	 0.000000	 0.000000	 0.156879
				CHANNELS 3 Zrotation Xrotation Yrotation
				JOINT LeftShoulder
				{
					OFFSET	 0.080501	-0.002496	 0.160144
					CHANNELS 3 Zrotation Xrotation Yrotation
					JOINT LeftArm
					{
						OFFSET	 0.000000	 0.000000	 0.164363
						CHANNELS 3 Zrotation Xrotation Yrotation
						JOINT LeftForeArm
						{
							OFFSET	 0.000000	 0.000000	 0.364576
							CHANNELS 3 Zrotation Xrotation Yrotation
							JOINT LeftHand
							{
								OFFSET	 0.000000	 0.000000	 0.360812
								CHANNELS 3 Zrotation Xrotation Yrotation
								JOINT LeftHandIndex1
								{
									OFFSET	 0.000000	 0.000000	 0.086006
									CHANNELS 3 Zrotation Xrotation Yrotation
									JOINT LeftHandIndex2
									{
										OFFSET	 0.000000	 0.000000	 0.047236
										CHANNELS 3 Zrotation Xrotation Yrotation
										JOINT LeftHandIndex3
										{
											OFFSET	-0.004284	-0.000551	 0.038166
											CHANNELS 3 Zrotation Xrotation Yrotation
											End Site
											{
												OFFSET	-0.004284	-0.000551	 0.038166
											}
										}
									}
								}
							}
						}
					}
				}
				JOINT Neck
				{
					OFFSET	 0.000000	 0.000000	 0.176489
					CHANNELS 3 Zrotation Xrotation Yrotation
					JOINT Head
					{
						OFFSET	 0.000000	-0.001747	 0.077940
						CHANNELS 3 Zrotation Xrotation Yrotation
						End Site
						{
							OFFSET	 0.000000	-0.001747	 0.077940
						}
					}
				}
				JOINT RightShoulder
				{
					OFFSET	-0.080363	 0.000306	 0.159706
					CHANNELS 3 Zrotation Xrotation Yrotation
					JOINT RightArm
					{
						OFFSET	 0.000000	 0.000000	 0.164196
						CHANNELS 3 Zrotation Xrotation Yrotation
						JOINT RightForeArm
						{
							OFFSET	 0.000000	 0.000000	 0.365611
							CHANNELS 3 Zrotation Xrotation Yrotation
							JOINT RightHand
							{
								OFFSET	 0.000000	 0.000000	 0.360648
								CHANNELS 3 Zrotation Xrotation Yrotation
								JOINT RightHandIndex1
								{
									OFFSET	 0.000000	 0.000000	 0.069977
									CHANNELS 3 Zrotation Xrotation Yrotation
									JOINT RightHandIndex2
									{
										OFFSET	 0.000000	 0.000000	 0.052305
										CHANNELS 3 Zrotation Xrotation Yrotation
										JOINT RightHandIndex3
										{
											OFFSET	 0.009002	-0.000782	 0.042196
											CHANNELS 3 Zrotation Xrotation Yrotation
											End Site
											{
												OFFSET	 0.009002	-0.000782	 0.042196
											}
										}
									}
								}
							}
						}
					}
				}
			}
		}
	}
}
MOTION
Frames:    6
Frame Time: 0.03333334
 0.000166	 0.047650	 1.275883	-0.043049	 3.205944	 0.771152	 13.952280	-6.945102	 177.231400	 2.151686	-12.266430	 0.545991	 0.258031	 69.866210	-0.348743	-2.385833	 28.452750	 0.000004	-6.608533	-5.676494	-177.858700	-0.800087	-9.441070	 0.714252	 4.320812	 68.344740	 2.071788	 2.384659	 28.388700	-0.000001	-4.690422	 7.852366	-0.170230	 0.869272	-7.226987	 0.244637	-2.148819	 11.517950	 0.639329	-90.997540	 68.630420	-177.448700	-6.666014	 0.495327	-28.021430	 21.940670	 0.052217	-2.682135	-9.431705	-24.453210	-5.469420	-2.027600	 6.559038	 9.033609	-5.188889	 0.308190	 3.541030	-5.234859	 0.342567	 0.430617	 4.695057	 20.879080	-7.660450	-7.201296	-15.461390	 1.696165	 88.767860	 67.004940	 176.893100	 8.789703	 9.479083	 7.743117	-22.060490	-9.182363	 34.540220	 6.636588	-23.853320	 6.675228	 1.803333	 3.979147	-15.098590	 4.898592	 3.004813	-9.310344	 5.224449	 0.395017	 2.014677
-0.000810	 0.058552	 1.274405	 0.105715	 4.982098	 0.994634	 14.214300	-10.131910	 177.508700	 2.219787	-13.579840	 0.607925	 2.261598	 69.930580	-2.585348	-2.385833	 28.452760	 0.000004	-7.380579	-8.334566	-178.480700	-0.914783	-9.883570	 0.727608	 2.601978	 67.997780	 4.132485	 2.384659	 28.388700	-0.000001	-11.128070	 8.958465	-0.252499	 0.904183	-9.334529	 0.201163	-2.439003	 14.964760	 0.872850	-90.825500	 66.981020	-177.198600	-4.645133	 2.383608	-33.338170	 16.449210	 0.586191	-5.075844	-9.930270	-28.476940	-7.965978	-2.027600	 6.559038	 9.033609	-5.188889	 0.308190	 3.541030	-5.234859	 0.342567	 0.430617	 4.648057	 25.025060	-8.749383	-6.782296	-18.680400	 1.462390	 88.417020	 64.017550	 176.422100	 5.716814	 12.156730	 11.551100	-18.559930	-6.238131	 36.877390	 5.578642	-26.641390	 7.206301	 1.803333	 3.979147	-15.098590	 4.898592	 3.004813	-9.310344	 5.224449	 0.395017	 2.014677
-0.001670	 0.072775	 1.272992	 0.354489	 7.353772	 1.180125	 14.175210	-14.492370	 178.019400	 2.122869	-15.655670	 0.685690	 5.170731	 70.075150	-5.774150	-2.385832	 28.452790	-0.000001	-8.295663	-11.860260	-179.265100	-1.396755	-10.392430	 0.677309	 0.731327	 67.502520	 6.799077	 2.384659	 28.388700	-0.000001	-16.941910	 9.879128	-0.403642	 1.047101	-10.171710	 0.207490	-2.935182	 17.019680	 1.079059	-91.094650	 65.264630	-178.166200	-2.786790	 3.657790	-37.486370	 10.033750	 1.447076	-7.350785	-12.512400	-31.509860	-11.407260	-2.027600	 6.559038	 9.033609	-5.188889	 0.308190	 3.541030	-5.234859	 0.342567	 0.430617	 4.053581	 26.717940	-8.802291	-6.528921	-20.284400	 1.076707	 88.617100	 61.511780	 177.236500	 1.646536	 14.000200	 14.087320	-14.634840	-2.897556	 40.254620	 5.255240	-28.867710	 8.724276	 1.803333	 3.979147	-15.098590	 4.898592	 3.004813	-9.310344	 5.224449	 0.395017	 2.014677
-0.002377	 0.092904	 1.270555	 0.777343	 10.844220	 1.176769	 14.020440	-20.231770	 179.089400	 2.060485	-17.620920	 0.750266	 9.261832	 69.574850	-10.330880	-2.385832	 28.452790	-0.000001	-9.216287	-17.499100	 179.790800	-1.699856	-12.164960	 0.727090	-2.081644	 67.321260	 10.459470	 2.384659	 28.388700	-0.000001	-22.805860	 10.730110	-0.507509	 1.317048	-10.724700	 0.138724	-3.507630	 18.255900	 1.640063	-92.243060	 64.973110	 178.761200	-1.204708	 6.644704	-39.899650	 4.834162	 2.770826	-9.781662	-15.292040	-33.720650	-14.947200	-2.027600	 6.559038	 9.033609	-5.188889	 0.308190	 3.541030	-5.234859	 0.342567	 0.430617	 3.305355	 25.926760	-8.913186	-6.271741	-20.538110	 0.710134	 89.715190	 60.486980	 179.846800	-3.571383	 17.508810	 15.914080	-10.590410	 1.289069	 43.739530	 5.907429	-31.340230	 10.687110	 1.803333	 3.979147	-15.098590	 4.898592	 3.004813	-9.310344	 5.224449	 0.395017	 2.014677
-0.005121	 0.112923	 1.267812	 1.850689	 15.454120	 1.216875	 12.933250	-26.699410	 179.969200	 2.682073	-18.998500	 1.009614	 12.413530	 68.722200	-14.675800	-2.385833	 28.452760	 0.000004	-10.742940	-23.942210	 178.387500	-1.446378	-14.243120	 0.911502	-6.055141	 67.262870	 14.877840	 2.384659	 28.388700	-0.000001	-27.053010	 10.969230	-0.595462	 1.149099	-10.253460	-0.079231	-4.035254	 17.682900	 1.811821	-93.318480	 65.268450	 175.850600	-0.161183	 8.513743	-40.974880	 1.574568	 4.142106	-11.664940	-16.889510	-34.740840	-17.165050	-2.027600	 6.559038	 9.033609	-5.188889	 0.308190	 3.541030	-5.234859	 0.342567	 0.430617	 2.775152	 24.590250	-8.628839	-6.173460	-20.489110	 0.248055	 90.895060	 60.489250	-177.450900	-8.505527	 20.729300	 18.489260	-7.332527	 5.260506	 47.250990	 7.458492	-32.924360	 12.737590	 1.803333	 3.979147	-15.098590	 4.898592	 3.004813	-9.310344	 5.224449	 0.395017	 2.014677
-0.009546	 0.132756	 1.265811	 3.589676	 20.553570	 0.990315	 10.892190	-33.041890	-179.448600	 3.573312	-19.199780	 1.314013	 13.833180	 66.709910	-17.609090	-2.385833	 28.452760	 0.000004	-12.963800	-30.603540	 176.702000	-1.763817	-16.388300	 0.955370	-9.121317	 66.540060	 19.050670	 2.384659	 28.388700	-0.000001	-30.109140	 10.911170	-0.739591	 0.613397	-8.186242	-0.167594	-4.585115	 15.838230	 1.329620	-94.142920	 65.881550	 173.438300	 0.268101	 9.304943	-41.924830	-1.285744	 5.596841	-13.254310	-18.566330	-35.420930	-19.214400	-2.027600	 6.559038	 9.033609	-5.188889	 0.308190	 3.541030	-5.234859	 0.342567	 0.430617	 2.324568	 23.888850	-7.288702	-6.363385	-20.946160	-0.680932	 91.961050	 61.307020	-174.870900	-12.635090	 23.423120	 22.425880	-5.311536	 8.817972	 51.001700	 9.224726	-33.673770	 14.768590	 1.803333	 3.979147	-15.098590	 4.898592	 3.004813	-9.310344	 5.224449	 0.395017	 2.014677
